<svg width="512" height="512" viewBox="0 0 512 512" fill="none" xmlns="http://www.w3.org/2000/svg">
<mask id="mask0_23_500" style="mask-type:luminance" maskUnits="userSpaceOnUse" x="0" y="0" width="512" height="512">
<path d="M512 0H0V512H512V0Z" fill="white"/>
</mask>
<g mask="url(#mask0_23_500)">
<path d="M327.904 92.7191C328.574 98.8198 327.121 103.962 321.535 106.786C317.402 108.903 313.324 107.139 309.525 104.719C306.788 103.004 304.051 101.29 301.146 99.7777C274.612 85.9127 247.967 70.888 221.489 57.023C208.753 50.3678 209.535 50.6703 220.651 43.0571C235.845 32.5701 247.744 34.3852 264.613 42.9059C281.148 51.2753 293.493 57.5776 308.352 65.6445C320.753 71.2914 327.233 77.6945 327.904 92.7191Z" fill="#6356E5"/>
<path d="M444.708 231.974C439.178 235.554 433.48 236.966 428.006 233.991C423.928 231.773 423.593 227.689 423.984 223.555C424.263 220.53 424.543 217.555 424.543 214.53C424.654 186.85 425.827 158.515 425.995 130.936C426.051 117.676 426.162 118.432 439.01 123.323C456.662 130.029 460.852 140.213 461.02 157.658C461.243 174.75 461.355 187.556 460.908 203.186C461.746 215.74 458.841 223.958 444.708 231.974Z" fill="#6356E5"/>
<path d="M369.073 392.758C362.928 390.187 358.739 386.456 358.851 380.708C358.962 376.423 362.705 374.104 366.839 372.389C369.855 371.129 372.872 369.818 375.776 368.356C402.422 354.642 430.24 341.483 456.83 327.87C469.622 321.316 468.952 321.769 470.628 334.223C472.974 351.365 465.265 359.684 448.619 368.558C432.307 377.23 420.018 383.683 404.824 391.145C393.149 398.002 383.764 399.817 369.073 392.758Z" fill="#6356E5"/>
<path d="M176.912 413.581C176.298 407.481 177.806 402.338 183.392 399.565C187.582 397.498 191.604 399.262 195.402 401.682C198.139 403.447 200.877 405.111 203.725 406.674C230.148 420.69 256.681 435.916 282.992 449.983C295.672 456.739 294.89 456.437 283.718 463.949C268.412 474.335 256.57 472.47 239.756 463.798C223.277 455.327 210.987 448.975 196.24 440.757C183.895 435.059 177.471 428.606 176.912 413.581Z" fill="#6356E5"/>
<path d="M61.2253 273.519C66.7555 269.99 72.4533 268.629 77.9277 271.603C82.0055 273.822 82.2848 277.905 81.8379 282.04C81.5027 285.065 81.2235 288.04 81.2235 291.065C80.8883 318.744 79.4918 347.079 79.1007 374.658C78.9332 387.918 78.8214 387.162 66.0294 382.221C48.4332 375.414 44.3554 365.18 44.2996 347.735C44.2437 330.643 44.2437 317.837 44.7465 302.207C44.0761 289.703 47.0926 281.435 61.2253 273.519Z" fill="#6356E5"/>
<path d="M138.257 113.29C144.401 115.861 148.535 119.642 148.367 125.441C148.256 129.726 144.457 131.995 140.268 133.709C137.251 134.97 134.235 136.23 131.33 137.692C104.573 151.204 76.6423 164.212 49.9409 177.624C37.093 184.077 37.8192 183.623 36.1992 171.17C34.0206 154.028 41.7853 145.709 58.4876 136.986C74.9106 128.415 87.2 122.063 102.506 114.701C114.181 107.895 123.621 106.13 138.257 113.29Z" fill="#6356E5"/>
<path d="M361.755 222.697C361.59 190.899 361.533 132.929 361.745 100.369C361.75 99.6707 362.451 99.2113 363.103 99.4616L394.445 111.49C395.241 111.795 395.756 112.56 395.729 113.411C394.61 149.406 394.947 200.931 395.774 236.512C396.109 249.318 390.802 255.318 378.904 261.872C373.541 264.847 346.617 278.41 338.405 282.695C335.724 284.057 333.545 284.813 331.981 284.258C330.808 284.409 329.635 284.409 328.406 284.157L294.89 277.149C302.766 269.133 305.615 257.889 302.319 247.604L328.406 253.049C332.149 253.856 336.115 252.797 338.74 250.276C341.645 247.453 345.332 244.529 349.912 241.201C357.789 235.554 361.811 231.521 361.755 222.697Z" fill="#6356E5"/>
<path d="M277.281 273.428L271.629 276.679L270.291 277.483L263.247 281.526C257.58 284.827 250.436 285.209 244.618 282.549L238.638 279.855L237.631 279.377L229.931 275.896C224.005 273.213 220.279 267.833 220.143 261.824L220.011 256.18L220.012 255.037L219.844 247.045C219.786 241.157 223.105 235.53 228.703 232.266L234.355 229.015L235.679 228.26L242.806 224.131C247.219 221.548 252.578 220.78 257.498 221.842C258.85 222.134 260.172 222.523 261.381 223.096L267.307 225.779L268.422 226.28L276.014 229.738C281.94 232.421 285.72 237.812 285.802 243.809L285.904 249.551L285.903 250.695L286.071 258.686C286.252 264.549 282.864 270.213 277.281 273.428Z" fill="#DB504A"/>
<path d="M336.618 323.232C367.155 307.24 436.337 276.83 468.194 260.695C468.861 260.358 469.624 260.855 469.624 261.602V291.355C469.624 292.121 469.203 292.812 468.513 293.146C433.597 310.057 373.799 338.501 340.416 356.709C328.239 363.314 319.86 362.154 307.626 356.104C302.096 353.382 275.674 339.113 267.462 334.777C265.563 333.769 264.111 332.861 263.329 331.853C261.653 330.895 260.312 329.383 259.698 327.517L249.978 297.569C252.492 298.123 255.173 298.375 257.743 298.375C266.848 298.375 275.73 295.149 282.265 289.199L289.639 311.837C290.756 315.316 293.885 317.938 297.851 318.694C302.208 319.551 307.123 321.013 312.989 323.131C322.318 326.509 328.183 327.668 336.618 323.232Z" fill="#6356E5"/>
<path d="M227.578 353.684C258.03 369.56 313.263 401.342 344.295 418.015C344.97 418.378 344.985 419.324 344.338 419.733L315.839 437.761C315.217 438.154 314.438 438.18 313.797 437.818C279.785 418.623 232.141 390.715 197.413 373.246C185.012 367.045 181.996 359.886 181.66 347.281C181.493 341.584 182.107 313.753 182.163 305.182C182.163 303.215 182.331 301.602 182.945 300.493V300.442C183.057 298.829 183.839 297.266 185.18 296.006L208.641 273.368C212.272 283.603 221.601 291.418 233.164 294.039L215.065 311.434C212.384 314.055 211.49 317.786 212.663 321.215C213.948 324.996 215.009 329.534 215.903 335.08C217.355 344.105 219.143 349.298 227.578 353.684Z" fill="#6356E5"/>
<path d="M177.583 221.437L211.155 228.496C203.223 236.462 200.374 247.705 203.446 257.99L178.03 252.696C174.287 251.94 170.321 252.999 167.695 255.52C164.735 258.494 160.825 261.57 155.965 264.998C148.088 270.595 144.01 274.578 143.955 283.401C143.9 315.046 142.522 380.141 141.999 412.872C141.987 413.615 141.198 414.061 140.539 413.719L109.566 397.643C108.876 397.285 108.456 396.571 108.488 395.794C110.015 359.025 110.711 305.822 110.159 269.435C109.991 256.629 115.354 250.68 127.252 244.176C132.671 241.201 159.707 227.84 167.975 223.605C169.371 222.899 170.656 222.345 171.717 222.092C173.449 221.286 175.516 221.034 177.583 221.437Z" fill="#6356E5"/>
<path d="M241.487 173.187C243.666 174.094 245.509 175.859 246.235 178.128L255.899 207.975C244.224 205.606 232.047 208.782 223.612 216.395L216.573 194.564C215.456 191.186 212.495 188.564 208.641 187.758C204.34 186.85 199.48 185.388 193.67 183.27C184.398 179.842 178.532 178.632 170.041 183.018C139.113 198.913 74.8573 230.138 42.7811 246.198C42.1159 246.531 41.3564 246.036 41.3564 245.292V215.541C41.3564 214.766 41.793 214.067 42.4931 213.735C79.3512 196.303 131.137 168.504 166.578 149.54C178.811 142.986 187.135 144.247 199.368 150.347C204.898 153.12 231.209 167.59 239.364 171.977C240.146 172.38 240.817 172.783 241.431 173.187H241.487Z" fill="#6356E5"/>
<path d="M307.85 133.255C320.307 139.406 323.435 146.515 323.826 159.12C323.993 164.817 323.602 192.648 323.658 201.219C323.658 202.883 323.491 204.295 323.1 205.404V205.454C322.876 207.017 322.15 208.429 320.865 209.69L297.348 232.327C293.773 222.092 284.444 214.227 272.881 211.605L290.365 194.766C293.102 192.194 294.052 188.564 292.879 185.186C291.594 181.405 290.589 177.019 289.639 171.573C288.075 162.599 286.232 157.406 277.741 153.07C246.704 137.176 185.434 107.574 153.711 90.9829C153.051 90.6377 153.01 89.7291 153.616 89.2964L184.802 67.0396C185.431 66.5904 186.254 66.5389 186.929 66.9161C222.276 86.6665 271.692 115.441 307.85 133.255Z" fill="#6356E5"/>
</g>
</svg>
